@startuml

interface "STAQueryOptionsGrammarBaseVisitor" as sta_grammar_visitor
note top of sta_grammar_visitor : generated from g4-file

class "QueryOptionsFactory" as sta_query_factory
class "STAQueryOptionVisitor" as sta_query_visitor

class "FilterExprVisitor" as sta_expression_visitor

sta_query_visitor ..|> sta_grammar_visitor : implements
sta_query_factory ..> sta_query_visitor : creates
@enduml